<svg viewBox="0 0 344 344" xmlns="http://www.w3.org/2000/svg" xmlns:xlink="http://www.w3.org/1999/xlink"><linearGradient id="a" gradientTransform="matrix(1 0 0 -1 0 343.89)" gradientUnits="userSpaceOnUse" x2="344" y1="171.89" y2="171.89"><stop offset="0" stop-color="#fff"/><stop offset=".2" stop-color="#fff"/><stop offset=".45" stop-color="#fff"/><stop offset=".48" stop-color="#fff"/><stop offset=".49" stop-color="#fff"/><stop offset=".7" stop-color="#f8f8f8"/><stop offset=".78" stop-color="#f4f4f4"/><stop offset=".91" stop-color="#f0f4f8"/><stop offset="1" stop-color="#e9f4ff"/></linearGradient><linearGradient id="b" gradientUnits="userSpaceOnUse" x1="100.02" x2="243.58" y1="207.11" y2="207.11"><stop offset="0" stop-color="#fff"/><stop offset="0" stop-color="#4c8cfe"/><stop offset=".2" stop-color="#5191fe"/><stop offset=".45" stop-color="#609fff"/><stop offset=".49" stop-color="#64a3ff"/><stop offset=".65" stop-color="#75afff"/><stop offset=".9" stop-color="#8dc1ff"/></linearGradient><linearGradient id="c" x1="112.1" x2="168.93" xlink:href="#b" y1="98.36" y2="98.36"/><linearGradient id="d" x1="237.37" x2="286.97" xlink:href="#b" y1="124.83" y2="124.83"/><linearGradient id="e" x1="56.72" x2="106.33" xlink:href="#b" y1="124.83" y2="124.83"/><rect fill="url(#a)" height="344" rx="38" width="344"/><path d="m198.75 140.93a44.5 44.5 0 0 0 -26.93 9 44.83 44.83 0 0 0 -58.63 67.55l53.86 53.86a6.75 6.75 0 0 0 9.54 0l53.86-53.86a44.83 44.83 0 0 0 -31.7-76.48zm22.16 67-49.09 49.07-49.09-49.09a31.34 31.34 0 1 1 44-44.68l.36.36a6.75 6.75 0 0 0 9.54 0 31.34 31.34 0 1 1 44.68 44l-.36.36z" fill="url(#b)"/><path d="m140.52 134c7.85 0 15.4-4.07 20.72-11.16a41 41 0 0 0 7.69-24.48 40.91 40.91 0 0 0 -7.69-24.48c-5.32-7.1-12.87-11.16-20.72-11.16s-15.4 4.06-20.72 11.16a41 41 0 0 0 -7.7 24.48 41 41 0 0 0 7.7 24.48c5.32 7.08 12.87 11.16 20.72 11.16zm0-57.79c8.09 0 14.92 10.14 14.92 22.15s-6.83 22.15-14.92 22.15-14.93-10.15-14.93-22.15 6.83-22.16 14.93-22.16z" fill="url(#c)"/><path d="m203.12 134c7.85 0 15.41-4.07 20.73-11.16a41 41 0 0 0 7.69-24.48 40.91 40.91 0 0 0 -7.69-24.48c-5.32-7.1-12.88-11.16-20.73-11.16s-15.4 4.06-20.72 11.16a40.91 40.91 0 0 0 -7.69 24.48 41 41 0 0 0 7.69 24.48c5.32 7.08 12.88 11.16 20.72 11.16zm0-57.79c8.1 0 14.93 10.14 14.93 22.15s-6.83 22.15-14.93 22.15-14.92-10.16-14.92-22.16 6.8-22.15 14.92-22.15z" fill="#64a3ff"/><path d="m280.29 103.76c-4.65-6.2-11.29-9.76-18.17-9.76s-13.52 3.56-18.12 9.76a36.81 36.81 0 0 0 0 42.15c4.65 6.19 11.27 9.75 18.17 9.75s13.52-3.56 18.17-9.75a36.81 36.81 0 0 0 0-42.15zm-18.17 38.41c-6.13 0-11.32-7.94-11.32-17.34s5.2-17.33 11.32-17.33 11.31 7.94 11.31 17.33-5.18 17.34-11.31 17.34z" fill="url(#d)"/><path d="m99.69 103.76c-4.69-6.2-11.27-9.76-18.17-9.76s-13.52 3.56-18.16 9.76a36.78 36.78 0 0 0 0 42.15c4.64 6.19 11.27 9.75 18.16 9.75s13.48-3.56 18.17-9.75a36.78 36.78 0 0 0 0-42.15zm-18.17 38.41c-6.13 0-11.31-7.94-11.31-17.34s5.18-17.33 11.31-17.33 11.32 7.94 11.32 17.33-5.18 17.34-11.32 17.34z" fill="url(#e)"/></svg>