<svg viewBox="0 0 334.11 332.04" xmlns="http://www.w3.org/2000/svg"><path d="m181.15 203.94s-9.41-14.73 12.51-37c27.26-27.68 30.87-14 47.62-50.67h26s.52 71.66-8.1 87.66-78.03.01-78.03.01z" fill="#fffdec"/><path d="m239.51 8.69s-75.29 100.43 14.22 124.53c91.27 24.57 73.32-96.71 73.32-96.71l-17.21 28.11-63.35-13.44z" fill="#fffdec"/><path d="m218.14 112.2c-.88-.89-18.22-22-3.88-60.22a150.17 150.17 0 0 1 25.25-43.29l7 42.49 21 4.46s-6.73 12.68-8.21 20.64c-4 21.53-17.77 17.59-26.84 24.3-13.4 9.91 10.83 37.07-14.32 11.62z" fill="#d67e5c"/><path d="m294.62 133.91c5.08-1.34 36.1-15.71 39.1-56.4a150 150 0 0 0 -4.72-49.89l-24.21 35.64-26.79-6.09s.79 16.35-1.81 26c-5.9 21.79 8.6 23.07 17 30.57 13.81 12.18-36.19 30.02 1.43 20.17z" fill="#d67e5c"/><path d="m297.32 70a11.94 11.94 0 0 0 9.12 4.28c1.94-.06-2.36 3.85-6.24 2s-2.88-6.28-2.88-6.28z" fill="#272e41"/><path d="m244.8 58.42a12 12 0 0 1 -10.07-.33c-1.7-.94.35 4.5 4.65 4.61s5.42-4.28 5.42-4.28z" fill="#272e41"/><circle cx="291.07" cy="91.55" fill="#d67e5c" r="11.22"/><path d="m311.54 66.34 15.51-20.71s3.37 15.08-.31 26.44z" fill="#94414b"/><path d="m312.93 68.31s2.64-6.16 8.22-6.75l-6.07 6.7s4.27-4.22 8-2.71l-5.55 3.63z" fill="#d67e5c"/><circle cx="291.07" cy="91.55" fill="#272e41" r="8.27"/><path d="m293.5 87.57s1.36.91 1.12 1.78-.52 1.75-1.6 1.59a1.88 1.88 0 0 1 -1.57-2 1.47 1.47 0 0 1 2.05-1.37z" fill="#fffdec"/><path d="m293.81 92s1.48-1 1.95-.93a1.27 1.27 0 0 1 .09 2.1c-.96.53-2.5-.3-2.04-1.17z" fill="#fffdec"/><circle cx="239.79" cy="79.22" fill="#272e41" r="8.27"/><path d="m242.23 75.24s1.35.91 1.12 1.78-.52 1.75-1.6 1.6a1.89 1.89 0 0 1 -1.58-2.05 1.48 1.48 0 0 1 2.06-1.33z" fill="#fffdec"/><path d="m242.54 79.62s1.47-1.05 2-.92a1.26 1.26 0 0 1 .08 2.09c-1.01.58-2.54-.25-2.08-1.17z" fill="#fffdec"/><path d="m250.78 52.09s-2.06 15.35 7.29 18.17 8.35-3.88 13.48-2.72 4.18 3.17 9.81 5.3c11.09 4.21 17.57-9.61 18.29-10.75s-48.87-10-48.87-10z" fill="#272e41"/><path d="m301.46 131s-.16-19.15 7.14-20.08c16-2 7.67-12.8 21.08-13.89 0-.03-5.32 20.9-28.22 33.97z" fill="#272e41"/><path d="m208.74 76.52a6.91 6.91 0 0 1 6.6 6c1.18 6-3.56 10.45 1.66 13.32s11.53 4.73 4.07 19.23c0-.07-13.94-7.68-12.33-38.55z" fill="#272e41"/><path d="m263 92.74a42.41 42.41 0 0 1 -1.28 4.76c-.52.51-10.38 7.17-9.64 7.27 4.71.69 10.34-5.18 10.34-5.18a15.23 15.23 0 0 0 6 9.55c2.26 1.56-4.63-11.34-4.63-11.34l1.32-4.68z" fill="#272e41"/><path d="m258.46 86.8 13.09 3.11a10.83 10.83 0 0 1 -6.83 6.09c-4.65 1.21-6.26-9.2-6.26-9.2z" fill="#d67e76"/><path d="m240.5 49.83-3.62-25.62s-10.21 11.59-12.45 23.33z" fill="#94414b"/><path d="m238.34 50.89s.65-6.67-4-9.87l2.1 8.8s-1.71-5.76-5.7-6.22l3.12 5.85z" fill="#d67e5c"/><path d="m235.41 128.08s4.07 28.29-24.88 30.54c-18.06 1.4-30.76 35.14-30.29 29.21 3.58-45.71 45.59-42.83 55.17-59.75z" fill="#d67e5c"/><path d="m222.15 203.94s15.48-29.07 26.81-30.4 11.34-1.33 17.77-17.17c0 0 .13 48.61-16.21 60.16-10.22 7.23-28.37-12.59-28.37-12.59z" fill="#d67e5c"/><path d="m266.73 138.79s-6.15-1.58-7.43 8.27-3.1 11.22-4.65 16.54c-2.85 9.79 11.44 13.75 11.44 13.75s1.58-25.14.64-38.56z" fill="#272e41"/><path d="m33.84 139.52s11.52-4.37 27.05 15.78-2.29 41.21 18.63 49.43c0 0-2.2 15.22-13.17 14.26s-5.55-47.07-18.53-56.42-17.38 3.9-25.26-6.93 11.28-16.12 11.28-16.12z" fill="#d67e5c"/><path d="m65.91 226.53 78.73-2.08s-4.06-20.1-10-51.35c-3.4-17.71-25.15-30.35-29.43-72.35l-31.42 12.5s3.14 36.81-2.36 62.45a274.17 274.17 0 0 0 -5.52 50.83z" fill="#fffdec"/><path d="m0 40.61s8.43 124.69 92.36 85.39c85.57-40.19-5.64-124.81-5.64-124.81l3.11 36.81-57.06 30.56z" fill="#d67e5c"/><path d="m63.93 53.12s.87 11.05 11.2 16.46 23.87 2.89 29.81 9.94 22.76 12.15 24 .23c3.91-36.9-35.28-77.12-44.73-79.75l2.23 39.76z" fill="#d67e5c"/><path d="m47.37 61.32s18.68 28.93 15.63 43.37-13.67 24.48-16 28.5-24.64-4.78-38.34-43.19a150.1 150.1 0 0 1 -8.66-49.39l32.76 28z" fill="#d67e5c"/><path d="m27.32 71.4-19.32-17.24s-.3 15.45 5.56 25.84z" fill="#94414b"/><circle cx="44.99" cy="96.07" fill="#272e41" r="9.52"/><path d="m41.43 64.27s13.07 14.73 15.79 15.25-5.86-20.68-7.14-20.09a43.66 43.66 0 0 0 -8.65 4.84z" fill="#ce5e52"/><path d="m52.65 58.1s11.58 18.39 15.42 19.41-3.81-25.51-5.52-24.93a33 33 0 0 0 -9.9 5.52z" fill="#ce5e52"/><path d="m65.75 50.86s7.6 19.36 9.87 19.14 1.86-21.86-1.92-23.12c-1.51-.55-7.95 3.98-7.95 3.98z" fill="#ce5e52"/><path d="m44.18 90.76s1.86-.2 2.3.74.84 1.92-.22 2.58a2.16 2.16 0 0 1 -2.9-.62 1.69 1.69 0 0 1 .82-2.7z" fill="#fffdec"/><path d="m47.7 94.38s.52-2 1-2.26 2 .56 1.63 1.78-2.33 1.63-2.63.48z" fill="#fffdec"/><circle cx="92.53" cy="70.58" fill="#272e41" r="9.52"/><path d="m91.72 65.28s1.86-.21 2.3.73.84 1.92-.22 2.59a2.17 2.17 0 0 1 -2.9-.6 1.68 1.68 0 0 1 .82-2.72z" fill="#fffdec"/><path d="m95.24 68.9s.52-2 1-2.27 2 .56 1.63 1.78-2.35 1.64-2.63.49z" fill="#fffdec"/><path d="m47.45 131.26s10.79-.47 13.89-8.59c4.17-10.91-11.3-28.45 1-37.48s17.14-10.11 25.21-1 13.08 18 24.54 14.12c17.78-6 16.56-20.83 16.89-14.4.71 13.51-4.86 24.3-31.76 41.54-21 13.46-50.58 10.06-56.22 7.77s-2.9-1.4 6.45-1.96z" fill="#fffdec"/><g fill="#ce5e52"><path d="m125.77 54.53s-18.38 6.67-17.14 8.64c1.72 2.75 19.88 2.25 19.56.68a53.49 53.49 0 0 0 -2.42-9.32z"/><path d="m120.47 41.82s-7.87 10.23-10 12.7 14.29-1 14.35-2.63c.12-2.18-3.82-9.32-4.35-10.07z"/><path d="m128.55 65.92s-16 4.6-15.09 5.68 15 7 15.62 5.65c.92-2.04.61-7.13-.53-11.33z"/><path d="m19.66 112.85s16.77-9.82 17.52-7.62c1 3.07-10.76 16.74-11.86 15.58a43.38 43.38 0 0 1 -5.66-7.96z"/><path d="m13.16 100.88s12.9.38 16.14.33-9.74 10.25-11.13 9.44c-.45-.26-4.82-8.24-5.01-9.77z"/><path d="m26.57 122.06s13.8-9.11 14.07-7.76-4.04 15.7-5.52 15.7-7.72-6.45-8.55-7.94z"/></g><path d="m26.35 73.6s-3.8-5.51-9.39-5l7.27 5.4s-5-3.29-8.36-1.07l6.13 2.44z" fill="#d67e5c"/><path d="m92.24 38.16-1.52-25.83s12.31 9.34 16.82 20.4z" fill="#94414b"/><path d="m94.56 38.77s-2-6.41 1.93-10.46l-.31 9s.54-6 4.35-7.23l-1.89 6.36z" fill="#d67e5c"/><path d="m83.54 55a11.9 11.9 0 0 0 9.73-2.61c1.45-1.3.68 4.46-3.48 5.55s-6.25-2.94-6.25-2.94z" fill="#272e41"/><path d="m37.63 80.34a11.89 11.89 0 0 1 -7.9 6.24c-1.9.39 3.17 3.21 6.53.52s1.37-6.76 1.37-6.76z" fill="#272e41"/><path d="m72.37 90.74a42.82 42.82 0 0 1 2.33 4.34c0 .73-2.65 12.33-2 11.91 3.91-2.73 4-10.87 4-10.87a15.21 15.21 0 0 0 10.83 2.88c2.72-.42-11.14-5.08-11.14-5.08l-2.25-4.32z" fill="#272e41"/><path d="m65 89.51 11.67-6.71a10.84 10.84 0 0 1 -.81 9.11c-2.54 4.09-10.86-2.4-10.86-2.4z" fill="#d67e76"/><path d="m74.61 133.39s16.46 12.67 17.89 40.28 1.44 52.86 1.44 52.86h-30.63s2-38.61 8.08-55.8-1.6-31.13 3.22-37.34z" fill="#d67e5c"/><path d="m108.17 117.82s5.6 27.85 9.46 49.36 9.47 51.78 7.31 56.23 27.8 0 27.8 0-14.58-93.57-44.57-105.59z" fill="#d67e5c"/><path d="m40.66 139.61s-2.66 14.56-.77 14.39 7.43-10.34 7.39-11.6-5.75-2.6-6.62-2.79z" fill="#ce5e52"/><path d="m50.09 144.46s-5.09 12.11-4.22 12.84 10.42-7.42 10.11-7.74-3.54-4.56-5.89-5.1z" fill="#ce5e52"/><path d="m74 154.67s15.25 4.2 14.5 6.1-14.83 4.71-15.6 4.55 1.27-9.66 1.1-10.65z" fill="#ce5e52"/><path d="m72.31 167.75s14.18 2.67 14.31 4.92-16 4.39-17 4 2.69-8.92 2.69-8.92z" fill="#ce5e52"/><path d="m68.88 180s16.86-.3 17.74 2.27-19.13 10.31-19.94 10.12 1.79-10.51 2.2-12.39z" fill="#ce5e52"/><path d="m36.61 139.12s1.54 11.3-.91 13.17-6.8-10.88-7.26-10.65 2.3-2.31 8.17-2.52z" fill="#ce5e52"/><path d="m62.29 210.54s-2.54 113.25 0 119 196.07 0 196.07 0v-125.96z" fill="#cfa477"/><path d="m258.36 241.07s-197.09 9.52-197.07 7.55.39-25.21.39-25.21l196.68 1.3z" fill="#c17365" opacity=".37"/><path d="m51.93 193.75h213.15s6.39 27.06 8.2 29.54-227.92 0-227.92 0z" fill="#e8bc87"/><path d="m167.83 80.06s14.42 5.26 14.54 23.9c.15 25.38-28 36.75-16 55.71 0 0-10.73 11-19 3.78s23.2-41.33 18.21-56.53-16.36-7.06-16.35-20.46 18.6-6.4 18.6-6.4z" fill="#272e41"/><path d="m142.6 201.62s-6.37 23.67 3.19 41.49c4.84 9-8.35 16.51-20.94.08s-11.85-46.19 6.41-62.42 11.34 20.85 11.34 20.85z" fill="#fffdec"/><path d="m179.18 197.16s7.63 23.29-1 41.6c-4.35 9.28 9.22 16 20.91-1s8.62-51.83-10.46-67-9.45 26.4-9.45 26.4z" fill="#fffdec"/><path d="m111.75 92.28s-45.32 117.05 47.37 116c94.51-1 44.42-112.94 44.42-112.94l-9 31.72-64.54 4.24z" fill="#fffdec"/><path d="m149.6 130s8.34 38.65-11.07 45c-14 4.57-14.8 21.73-19.36 22.71-1.22.26-23.5-16.27-20-56.92a150.13 150.13 0 0 1 12.61-48.51l18.21 39z" fill="#272e41"/><path d="m166 128.76s-5.81 39.82 14 44.66c14.34 3.49 16.35 21.26 21 21.9 1.24.17 24.22-19.69 17.67-60-4.46-27.45-15.36-45.05-15.36-45.05l-18.31 37.37z" fill="#272e41"/><path d="m123.83 131.62-10.42-23.69s-6.7 13.93-5.68 25.83z" fill="#d67e76"/><path d="m184 135.62a11.9 11.9 0 0 0 9.94 1.65c1.85-.58-1.23 4.35-5.47 3.61s-4.47-5.26-4.47-5.26z" fill="#fffdec"/><path d="m130.28 138.72a11.91 11.91 0 0 1 -9.77 2.41c-1.9-.44 1.55 4.23 5.72 3.18s4.05-5.59 4.05-5.59z" fill="#fffdec"/><circle cx="183.79" cy="158.1" fill="#639595" r="11.22"/><path d="m122 133.22s-1.18-6.59-6.49-8.43l4.4 7.9s-3.2-5.08-7.17-4.44l4.59 4.79z" fill="#272e41"/><path d="m193.51 127.58 9.33-24.14s7.32 13.61 6.85 25.55z" fill="#d67e76"/><path d="m195.37 129.1s.88-6.64 6.1-8.72l-4 8.1s3-5.23 6.95-4.77l-4.36 5z" fill="#272e41"/><circle cx="183.79" cy="158.1" fill="#272e41" r="8.27"/><path d="m185.06 153.61s1.55.51 1.56 1.41 0 1.83-1.11 2a1.89 1.89 0 0 1 -2.07-1.54 1.47 1.47 0 0 1 1.62-1.87z" fill="#fffdec"/><path d="m186.54 157.74s1.14-1.4 1.63-1.42a1.28 1.28 0 0 1 .65 2c-.77.82-2.47.44-2.28-.58z" fill="#fffdec"/><circle cx="131.1" cy="160.11" fill="#639595" r="11.22"/><circle cx="131.1" cy="160.11" fill="#272e41" r="8.27"/><path d="m132.37 155.62s1.54.5 1.55 1.41 0 1.82-1.1 2a1.88 1.88 0 0 1 -2.07-1.54 1.46 1.46 0 0 1 1.62-1.87z" fill="#fffdec"/><path d="m133.85 159.75s1.13-1.41 1.63-1.42a1.27 1.27 0 0 1 .65 2c-.77.81-2.48.43-2.28-.58z" fill="#fffdec"/><path d="m157.65 167.34a42.47 42.47 0 0 1 .3 4.92c-.33.65-7.55 10.1-6.82 10 4.69-.85 8.16-8.21 8.16-8.21a15.23 15.23 0 0 0 8.69 7.15c2.64.75-8-9.27-8-9.27l-.24-4.86z" fill="#272e41"/><path d="m151.47 163.15 13.4-1.22a10.85 10.85 0 0 1 -4.54 7.94c-4.01 2.64-8.86-6.72-8.86-6.72z" fill="#d67e76"/><path d="m119 232s2.92-4.65 9.8-3.08 5.83-7 11.8-7.57c0 0 1 10.8 4.08 17.76s4.58 11.23-2.74 13.55-15.75-1.99-22.94-20.66z" fill="#272e41"/><path d="m203.91 227.32s-.9-3.81-7.9-2.93c-8 1-7.6-4.47-13.57-5 0 0-.88 9.58-3.94 16.54s-4.59 11.23 2.73 13.55 18.42-3.93 22.68-22.16z" fill="#272e41"/></svg>